<svg xmlns="http://www.w3.org/2000/svg" viewBox="0 0 256 256">
  <rect width="256" height="256" fill="#1a1a2e"/>
  <path d="M128 40 L180 70 L180 140 Q180 180 128 210 Q76 180 76 140 L76 70 Z" fill="#8b5cf6" stroke="#fbbf24" stroke-width="4"/>
  <path d="M128 40 L180 70 L180 100 L128 120 L76 100 L76 70 Z" fill="#fbbf24" opacity="0.3"/>
  <g stroke="#fbbf24" stroke-width="6" fill="none" stroke-linecap="round">
    <line x1="95" y1="100" x2="95" y2="160"/>
    <line x1="161" y1="100" x2="161" y2="160"/>
  </g>
  <g fill="#fbbf24">
    <path d="M88 95 L95 85 L102 95 L95 100 Z"/>
    <path d="M154 95 L161 85 L168 95 L161 100 Z"/>
    <circle cx="95" cy="165" r="5"/>
    <circle cx="161" cy="165" r="5"/>
  </g>
  <rect x="90" y="125" width="10" height="15" fill="#fbbf24" opacity="0.5"/>
  <rect x="156" y="125" width="10" height="15" fill="#fbbf24" opacity="0.5"/>
  <path d="M115 130 L128 115 L141 130 Z" fill="#fbbf24"/>
</svg>